<svg width="140" height="31" viewBox="0 0 140 31" fill="none" xmlns="http://www.w3.org/2000/svg">
<g clip-path="url(#clip0_21489_13921)">
<path d="M35.7813 26.7656C35.8122 26.7536 35.84 26.7446 35.8616 26.7355H35.877C36.1765 26.6213 36.4636 26.4681 36.7321 26.2817C37.01 26.0834 37.2631 25.843 37.4885 25.5605C38.0565 24.8482 38.4023 23.8925 38.5196 22.6904C38.5412 22.4499 38.5567 22.1885 38.569 21.906V8.13855H42.6595V20.8391C42.6688 21.1637 42.6688 21.5393 42.6595 21.9691C42.6472 22.3658 42.6286 22.7324 42.5947 23.066C42.5823 23.1802 42.5731 23.2914 42.5638 23.3966C42.3384 25.2359 41.7087 26.7836 40.6806 28.0368C40.2392 28.5898 39.736 29.0707 39.1679 29.4794C38.5875 29.8971 37.9701 30.2277 37.3156 30.4682C37.2415 30.4892 37.1705 30.5162 37.1057 30.5463L35.6887 31.0001L34.3828 27.2374L35.7813 26.7656ZM38.5505 1.97461H42.641V6.20912H38.5505V1.97461Z" fill="white"/>
<path d="M47.6247 23.4815C46.609 22.8924 45.8001 22.102 45.192 21.1133C44.5838 20.1245 44.2812 19.0306 44.2812 17.8284V8.31055H48.2452V17.8284C48.2452 18.5707 48.5138 19.2019 49.0509 19.7248C49.5881 20.2477 50.2364 20.5092 50.9989 20.5092C51.7491 20.5092 52.3943 20.2477 52.9315 19.7248C53.4687 19.2019 53.7372 18.5707 53.7372 17.8284V8.31055H57.7012V17.8284C57.7012 19.0306 57.4017 20.1245 56.7997 21.1133C56.1977 22.102 55.3889 22.8894 54.3763 23.4815C53.3606 24.0735 52.2369 24.368 51.002 24.368C49.7641 24.368 48.6403 24.0735 47.6247 23.4815Z" fill="white"/>
<path d="M63.4069 24.3523H59.3164V1.97461H63.4069V11.7119L66.9355 8.27679H72.7332L66.3058 14.5189L73.3939 24.3493H68.3834L63.4069 17.434V24.3523Z" fill="white"/>
<path d="M76.588 23.6758C75.6371 23.258 74.8036 22.681 74.0843 21.9417C73.365 21.2054 72.8 20.3489 72.3925 19.3781C71.985 18.4074 71.7812 17.3616 71.7812 16.2406C71.7812 15.1316 71.985 14.0918 72.3925 13.121C72.8 12.1503 73.365 11.2938 74.0843 10.5575C74.8036 9.8212 75.6402 9.24417 76.588 8.82343C77.5388 8.40569 78.5545 8.19531 79.6412 8.19531C80.7155 8.19531 81.7281 8.40569 82.6789 8.82343C83.6298 9.24117 84.4633 9.81819 85.1826 10.5575C85.902 11.2938 86.4669 12.1503 86.8744 13.121C87.2819 14.0948 87.4857 15.1346 87.4857 16.2406V18.2481L76.3873 18.2632C76.7207 18.8793 77.1714 19.3721 77.7395 19.7358C78.3075 20.1024 78.9435 20.2858 79.6412 20.2858C80.4037 20.2858 81.1076 20.0453 81.7497 19.5645L82.9259 18.7019L85.4389 21.8696L84.2627 22.7471C82.8549 23.781 81.3144 24.3009 79.6412 24.3009C78.5545 24.3039 77.5357 24.0935 76.588 23.6758ZM77.7395 12.7634C77.1714 13.1301 76.7176 13.6259 76.3873 14.2541H82.8796C82.5462 13.6259 82.0955 13.1301 81.5274 12.7634C80.9594 12.3968 80.3296 12.2134 79.6443 12.2134C78.9404 12.2134 78.3075 12.3968 77.7395 12.7634Z" fill="white"/>
<path d="M93.1882 23.2704V24.3223H89.0977V1.89648H93.1882V9.50298C94.4446 8.79072 95.803 8.43609 97.2632 8.43609C98.39 8.43609 99.4489 8.64345 100.437 9.05519C101.425 9.46692 102.292 10.0379 103.039 10.7652C103.786 11.4925 104.37 12.337 104.796 13.2987C105.219 14.2604 105.432 15.2912 105.432 16.3882C105.432 17.4851 105.219 18.516 104.796 19.4777C104.373 20.4394 103.786 21.2839 103.039 22.0112C102.292 22.7385 101.425 23.3065 100.437 23.7212C99.4489 24.1329 98.39 24.3403 97.2632 24.3403C95.803 24.3343 94.4446 23.9797 93.1882 23.2704ZM93.1882 16.3852C93.1882 17.1185 93.3703 17.7827 93.7346 18.3837C94.0989 18.9848 94.5897 19.4627 95.2072 19.8173C95.8246 20.1719 96.5099 20.3492 97.2601 20.3492C98.0103 20.3492 98.6957 20.1719 99.3131 19.8173C99.9305 19.4627 100.421 18.9848 100.786 18.3837C101.15 17.7827 101.332 17.1155 101.332 16.3852C101.332 15.6549 101.15 14.9877 100.786 14.3866C100.421 13.7856 99.9305 13.3077 99.3131 12.9531C98.6957 12.5985 98.0103 12.4212 97.2601 12.4212C96.5069 12.4212 95.8246 12.5985 95.2072 12.9531C94.5897 13.3077 94.0989 13.7856 93.7346 14.3866C93.3703 14.9877 93.1882 15.6549 93.1882 16.3852Z" fill="white"/>
<path d="M112.017 23.3242C111.023 22.9125 110.152 22.3384 109.408 21.6081C108.661 20.8778 108.074 20.0303 107.645 19.0686C107.216 18.1069 107 17.0761 107 15.9792C107 14.8702 107.216 13.8364 107.645 12.8746C108.074 11.9129 108.664 11.0654 109.408 10.3351C110.155 9.60485 111.023 9.03083 112.017 8.6191C113.011 8.20737 114.07 8 115.196 8C116.323 8 117.382 8.20737 118.37 8.6191C119.358 9.03083 120.229 9.60485 120.979 10.3351C121.729 11.0684 122.319 11.9129 122.741 12.8746C123.164 13.8364 123.377 14.8702 123.377 15.9792C123.377 17.0761 123.164 18.1069 122.741 19.0686C122.319 20.0303 121.729 20.8778 120.979 21.6081C120.225 22.3414 119.358 22.9125 118.37 23.3242C117.382 23.7359 116.323 23.9433 115.196 23.9433C114.07 23.9433 113.011 23.7359 112.017 23.3242ZM113.079 12.4269C112.44 12.7995 111.93 13.2924 111.547 13.9085C111.165 14.5246 110.976 15.2158 110.976 15.9792C110.976 16.7305 111.168 17.4157 111.547 18.0348C111.927 18.6509 112.44 19.1468 113.079 19.5164C113.718 19.8891 114.425 20.0724 115.196 20.0724C115.968 20.0724 116.675 19.8861 117.314 19.5164C117.953 19.1468 118.463 18.6509 118.845 18.0348C119.225 17.4187 119.417 16.7335 119.417 15.9792C119.417 15.2158 119.225 14.5276 118.845 13.9085C118.463 13.2924 117.953 12.7965 117.314 12.4269C116.675 12.0572 115.968 11.8709 115.196 11.8709C114.425 11.8709 113.718 12.0542 113.079 12.4269Z" fill="white"/>
<path d="M130.895 19.6458L127.11 24.3641H121.874L128.286 16.382L121.812 8.30664H127.033L130.898 13.1212L134.763 8.30664H139.999L133.507 16.382L139.919 24.3641H134.683L130.895 19.6458Z" fill="white"/>
<path d="M22.5302 5.9746C21.4929 4.15036 19.9771 2.67475 18.1371 1.60485C16.2972 0.534949 14.2596 0 12.0214 0C9.78324 0 7.74571 0.534949 5.90575 1.60485C4.0658 2.67475 2.63335 4.14435 1.55902 5.94455C0.484685 7.74174 0.00308717 9.79738 0.00308717 11.9762L0 29.1036H7.52034V11.853C7.52034 11.7599 7.52343 11.6366 7.52652 11.5014C7.52652 11.4623 7.52034 11.4263 7.52034 11.3872C7.52034 10.8853 7.60987 10.4045 7.7704 9.95667C7.92785 9.46079 8.18408 8.95288 8.60703 8.52613C8.61937 8.51411 8.62864 8.50509 8.64098 8.49607C9.02997 8.06331 9.50539 7.70567 10.0395 7.45022C10.1043 7.41716 10.1722 7.38711 10.2401 7.35705C10.2648 7.34503 10.2895 7.33602 10.3142 7.327C10.694 7.16772 11.1015 7.06253 11.5522 7.02046C11.7096 7.00543 11.8671 6.99641 12.0307 6.99641C12.3579 6.99641 12.6759 7.03248 12.9815 7.09559C13.0525 7.11062 13.1236 7.13165 13.1946 7.14969C13.2656 7.16772 13.3397 7.18575 13.4107 7.20679C13.5094 7.23684 13.6052 7.2729 13.7009 7.31197C13.741 7.327 13.7811 7.34203 13.8213 7.35705C13.9262 7.39913 14.025 7.45022 14.1238 7.4983C14.1547 7.51333 14.1855 7.53136 14.2195 7.54639C14.3152 7.59748 14.4109 7.65458 14.5004 7.71469C14.5375 7.73873 14.5714 7.75977 14.6085 7.78381C14.6887 7.84091 14.769 7.89801 14.8493 7.95812C14.8956 7.99418 14.9419 8.03325 14.9851 8.06932C15.0499 8.12341 15.1148 8.18051 15.1765 8.23762C15.229 8.28871 15.2784 8.3398 15.3309 8.39389C15.371 8.43597 15.4111 8.47203 15.4513 8.51411C15.4698 8.53514 15.4852 8.55618 15.5038 8.57722C15.5161 8.58924 15.5254 8.60427 15.5377 8.61929C15.9452 9.10315 16.1891 9.59602 16.3342 10.0558C16.3435 10.0829 16.3496 10.1099 16.3589 10.137C16.3836 10.2211 16.4052 10.3053 16.4237 10.3864C16.4855 10.6389 16.5225 10.9003 16.5349 11.1678C16.538 11.2159 16.541 11.261 16.541 11.3061C16.541 11.3331 16.5441 11.3602 16.5441 11.3872C16.5441 11.3932 16.5441 11.3992 16.5441 11.4082C16.5472 11.5825 16.5441 11.7358 16.5441 11.856V29.1066H24.0645V11.856C24.0707 9.67116 23.5705 7.80785 22.5302 5.9746Z" fill="white"/>
<path d="M12.0234 0C14.2616 0 16.2992 0.534949 18.1391 1.60485C19.9791 2.67475 21.4949 4.14736 22.5322 5.9746C23.5725 7.80785 24.0727 9.67116 24.0727 11.85V29.1006H16.5492V11.85C16.5492 11.7298 16.5523 11.5765 16.5492 11.4022C16.5492 11.3962 16.5492 11.3902 16.5492 11.3812C16.5492 11.3541 16.5461 11.3271 16.5461 11.3C16.5431 11.255 16.5431 11.2069 16.54 11.1618C16.5276 10.8943 16.4906 10.6329 16.4288 10.3804C16.4103 10.2993 16.3887 10.2151 16.364 10.131C16.3547 10.1039 16.3486 10.0769 16.3393 10.0498C16.1942 9.59302 15.9503 9.10014 15.5428 8.61328C15.5305 8.59825 15.5212 8.58623 15.5089 8.57121C15.4903 8.55017 15.4749 8.52913 15.4564 8.50809C15.4193 8.46602 15.3761 8.42695 15.336 8.38788C15.2866 8.33679 15.2372 8.28269 15.1816 8.2316C15.1199 8.1715 15.055 8.1174 14.9902 8.0633C14.9439 8.02424 14.9007 7.98817 14.8544 7.95211C14.7772 7.892 14.6969 7.83189 14.6136 7.7778C14.5796 7.75376 14.5426 7.72971 14.5055 7.70868C14.4129 7.64857 14.3203 7.59447 14.2246 7.54038C14.1937 7.52235 14.1628 7.50732 14.1289 7.49229C14.0301 7.4412 13.9282 7.39312 13.8263 7.35104C13.7862 7.33601 13.7461 7.32099 13.7059 7.30596C13.6102 7.2699 13.5145 7.23383 13.4158 7.20077C13.3447 7.17974 13.2737 7.16171 13.1996 7.14367C13.1286 7.12564 13.0576 7.1046 12.9866 7.08958C12.681 7.02647 12.363 6.9904 12.0358 6.9904" fill="white"/>
<path d="M12.0495 6.90625C13.4418 3.01435 15.822 0.598061 15.822 0.598061C15.822 0.598061 14.2722 0 12.0341 0C9.79894 0 8.24609 0.598061 8.24609 0.598061C8.24609 0.598061 10.6294 3.01435 12.0186 6.90625V6.9874C12.0248 6.97237 12.0279 6.96035 12.0341 6.94532C12.0402 6.96035 12.0433 6.97237 12.0495 6.9874V6.90625Z" fill="white"/>
<path d="M7.52034 29.1042V12.2383C7.52034 12.2383 0.18523 14.6966 0 23.0996V29.1042H7.52034Z" fill="white"/>
<path d="M16.5469 29.1042V12.2383C16.5469 12.2383 23.882 14.6966 24.0672 23.0996V29.1042H16.5469Z" fill="white"/>
</g>
<defs>
<clipPath id="clip0_21489_13921">
<rect width="140" height="31" fill="white"/>
</clipPath>
</defs>
</svg>
